<svg xmlns="http://www.w3.org/2000/svg" viewBox="0 0 24 24" fill="#ffffff"><path d="M12 2a10 10 0 1 0 10 10A10.011 10.011 0 0 0 12 2zm6.93 8H15.4a15.38 15.38 0 0 0-1.27-4.21A8.02 8.02 0 0 1 18.93 10zM12 4a13.4 13.4 0 0 1 2.18 6H9.82A13.4 13.4 0 0 1 12 4zM4.07 10A8.02 8.02 0 0 1 9.87 5.79 15.38 15.38 0 0 0 8.6 10zM8.6 14H5.07a8.02 8.02 0 0 1 4.8 4.21A15.38 15.38 0 0 0 8.6 14zm2.22 0h4.36A13.4 13.4 0 0 1 12 20a13.4 13.4 0 0 1-1.18-6zm3.58 4.21A8.02 8.02 0 0 1 18.93 14H15.4a15.38 15.38 0 0 0-1 4.21z"/></svg>

